<svg width="24.000000" height="24.000000" viewBox="0 0 24 24" fill="none" xmlns="http://www.w3.org/2000/svg" xmlns:xlink="http://www.w3.org/1999/xlink">
	<defs/>
	<path id="ton 1" d="M0.53 5.96L10.41 23.08C11.12 24.3 12.87 24.3 13.57 23.08L23.46 5.96C24.99 3.3 23.05 0 20 0L20 0L3.99 0C0.93 0 -1 3.29 0.53 5.96ZM3.99 3.22L10.38 3.22L10.38 17.26L8.51 13.64L8.51 13.64L3.32 4.35L3.32 4.35C3.03 3.85 3.38 3.22 3.99 3.22ZM20.67 4.35L20.67 4.35L15.48 13.64L15.47 13.64L13.6 17.27L13.6 3.21L20 3.21C20.6 3.21 20.95 3.85 20.67 4.35Z" fill="#5B8CF3" fill-opacity="1.000000" fill-rule="evenodd"/>
	<path id="ton 1" d="M0.53 5.96L0.66 5.88M10.41 23.08C11.12 24.3 12.87 24.3 13.57 23.08L23.46 5.96C24.99 3.3 23.05 0 20 0L20 0L3.99 0C0.93 0 -1 3.29 0.53 5.96L10.41 23.08ZM23.46 5.96L23.33 5.88M10.38 3.22L10.38 17.26L8.51 13.64L8.51 13.64L3.32 4.35L3.32 4.35C3.03 3.85 3.38 3.22 3.99 3.22L10.38 3.22ZM20.67 4.35L15.48 13.64L15.47 13.64L13.6 17.27L13.6 3.21L20 3.21C20.6 3.21 20.95 3.85 20.67 4.35L20.67 4.35Z" stroke="#FFFFFF" stroke-opacity="1.000000" strokeWidth="0.000000"/>
</svg>
